<svg xmlns="http://www.w3.org/2000/svg" xmlns:xlink="http://www.w3.org/1999/xlink" viewBox="0 0 92.22 111.67"><defs><style>.cls-1,.cls-10,.cls-15{fill:none;}.cls-2{isolation:isolate;}.cls-3{fill:#00668e;opacity:0.21;}.cls-12,.cls-3{mix-blend-mode:multiply;}.cls-4{fill:#bcafa6;}.cls-5{fill:#c81400;}.cls-22,.cls-6{fill:#ff8383;}.cls-7{fill:#e86360;}.cls-21,.cls-8{fill:#fff;}.cls-9{fill:#daeef3;}.cls-10{stroke:#76757c;}.cls-10,.cls-15,.cls-22{stroke-miterlimit:10;}.cls-11{fill:#d15454;}.cls-12,.cls-18{fill:#f9786d;}.cls-12{opacity:0.52;}.cls-13{fill:#a6dbda;}.cls-14,.cls-23{opacity:0.65;}.cls-15,.cls-16,.cls-22{stroke:#e86360;stroke-width:2px;}.cls-16,.cls-17{fill:#78d5fa;}.cls-16{stroke-linecap:round;stroke-linejoin:round;}.cls-19{clip-path:url(#clip-path);}.cls-20{opacity:0.6;}.cls-21{opacity:0.37;}.cls-23{fill:#eaeae9;}</style><clipPath id="clip-path"><path id="_Clipping_Path_" data-name="&lt;Clipping Path&gt;" class="cls-1" d="M24.75,74.35a8.31,8.31,0,0,1,8.1-4.12,143.68,143.68,0,0,0,15,.77,143.69,143.69,0,0,0,15-.77,8.31,8.31,0,0,1,8.1,4.12,17.84,17.84,0,0,1,1.77,4.28.88.88,0,0,1-.4,1c-6.1,3.69-14.79,6-24.43,6s-18.33-2.31-24.43-6a.88.88,0,0,1-.4-1A17.84,17.84,0,0,1,24.75,74.35Z"/></clipPath></defs><title>Red car</title><g class="cls-2"><g id="Layer_2" data-name="Layer 2"><g id="car"><g id="_Group_" data-name="&lt;Group&gt;"><path id="_Path_" data-name="&lt;Path&gt;" class="cls-3" d="M25.87,4.87A28.68,28.68,0,0,0,6.09,15c-9.22,11.26-8.24,83.11,4.76,92.51s65.72,1.36,65.72-9.89C76.58,80.13,25.87,4.87,25.87,4.87Z"/><g id="_Group_2" data-name="&lt;Group&gt;"><path id="_Path_2" data-name="&lt;Path&gt;" class="cls-4" d="M79.23,96.81l1,1.58a.84.84,0,0,1-.33,1.14,59.73,59.73,0,0,1-64.07,0,.84.84,0,0,1-.33-1.14l1-1.58a.83.83,0,0,1,1.14-.19,56.28,56.28,0,0,0,60.36,0A.83.83,0,0,1,79.23,96.81Z"/></g><path id="_Path_3" data-name="&lt;Path&gt;" class="cls-4" d="M70.42,5.88,71,3.73a.41.41,0,0,0-.28-.51,83.94,83.94,0,0,0-46,0,.41.41,0,0,0-.28.51l.62,2.15a.41.41,0,0,0,.51.28,80.87,80.87,0,0,1,44.34,0A.41.41,0,0,0,70.42,5.88Z"/><path id="_Path_4" data-name="&lt;Path&gt;" class="cls-5" d="M79.15,97.09a58.27,58.27,0,0,1-62.5,0,1,1,0,0,0-.49-.15l.41-.62a.83.83,0,0,1,1.14-.19,56.28,56.28,0,0,0,60.36,0,.83.83,0,0,1,1.14.19l.41.62A1,1,0,0,0,79.15,97.09Z"/><g id="_Group_3" data-name="&lt;Group&gt;"><path class="cls-6" d="M47.84,105.64C21.38,105.64,9,95.39,7.54,72.4c-.55-9-.29-18.24,0-27.22L7.59,42c.29-10.78,1.71-22.88,10-30.93C25.74,3.17,38.2,3.17,47.29,3.17c10.55,0,25,0,33.14,10.49,5.4,7,6.43,16.28,6.73,22.67.12,2.63.27,5.27.43,7.91a245.45,245.45,0,0,1,.54,27.14C86.46,102.09,64.33,105.64,47.84,105.64Z"/><path class="cls-7" d="M47.29,4.17c11.31,0,24.77.32,32.35,10.1,4.81,6.21,6.16,14.48,6.53,22.11.55,11.57,1.6,23.38,1,34.95-1.44,26.35-17.6,33.3-39.3,33.3s-37.72-6.69-39.3-32.3C7.92,62.36,8.32,52,8.59,42c.29-10.62,1.68-22.45,9.71-30.24,7.6-7.37,19.06-7.61,29-7.61m0-2c-9.27,0-22,0-30.39,8.17S6.89,31,6.59,42l-.09,3.2c-.25,9-.52,18.3,0,27.3.79,12.76,5,21.68,12.95,27.26,6.6,4.65,15.87,6.91,28.35,6.91,16.9,0,39.58-3.65,41.3-35.19a246.25,246.25,0,0,0-.54-27.24c-.15-2.6-.3-5.29-.43-7.91-.31-6.53-1.36-16-6.94-23.24C72.79,2.17,57.45,2.17,47.29,2.17Z"/></g><path id="_Path_5" data-name="&lt;Path&gt;" class="cls-7" d="M70,7.1a2.58,2.58,0,0,1-2,2.12c-4.85,1.41-11,1.86-20.28,2A102.21,102.21,0,0,1,29.45,10a7,7,0,0,1-4.29-2.73A28.43,28.43,0,0,1,33.37,5a103,103,0,0,1,14-.88C61.71,3.94,67,6,70,7.1Z"/><g id="_Group_4" data-name="&lt;Group&gt;"><path id="_Path_6" data-name="&lt;Path&gt;" class="cls-7" d="M22.31,99.13c3.94,2.35,7.29,3,8.33,2.23,1.32-1-.47-3.6-5.92-6.27-4.12-2-7.67-3.35-8.33-2.23S18.37,96.78,22.31,99.13Z"/><ellipse id="_Path_7" data-name="&lt;Path&gt;" class="cls-8" cx="23.17" cy="97.3" rx="2.01" ry="7.21" transform="translate(-72.27 67.36) rotate(-59.19)"/><path id="_Path_8" data-name="&lt;Path&gt;" class="cls-9" d="M22.14,99c-3.42-2-5.73-4.46-5.16-5.42a.64.64,0,0,1,.25-.23c-.5,1,1.79,3.37,5.18,5.38,3.08,1.84,6,2.73,7,2.2l0,0C28.79,101.95,25.56,101.07,22.14,99Z"/></g><g id="_Group_5" data-name="&lt;Group&gt;"><path id="_Path_9" data-name="&lt;Path&gt;" class="cls-7" d="M72.89,99.13c-3.94,2.35-7.29,3-8.33,2.23-1.32-1,.47-3.6,5.92-6.27,4.12-2,7.67-3.35,8.33-2.23S76.83,96.78,72.89,99.13Z"/><ellipse id="_Path_10" data-name="&lt;Path&gt;" class="cls-8" cx="72.03" cy="97.3" rx="7.21" ry="2.01" transform="translate(-39.68 50.63) rotate(-30.81)"/><path id="_Path_11" data-name="&lt;Path&gt;" class="cls-9" d="M73.06,99c3.42-2,5.73-4.46,5.16-5.42a.64.64,0,0,0-.25-.23c.5,1-1.79,3.37-5.18,5.38-3.08,1.84-6,2.73-7,2.2l0,0C66.41,101.95,69.64,101.07,73.06,99Z"/></g><path id="_Path_12" data-name="&lt;Path&gt;" class="cls-7" d="M33.31,103.2s-.3-1.09,1.78-1.17,7.74.83,12.26.83,11.39-1,12.09-1,3-.18,2.87,1.39c0,0-3.18,1.7-14.5,1.7C38.35,104.9,33.31,103.2,33.31,103.2Z"/><polyline id="_Path_13" data-name="&lt;Path&gt;" class="cls-10" points="39.09 108.67 39.09 108.67 56.09 108.67 56.09 108.67"/><path id="_Path_14" data-name="&lt;Path&gt;" class="cls-11" d="M51.09,7.79V7.72c0-.3-.63-1-.93-1H45c-.15,0,0,.68,0,.83v0c0,.45,0,1.2.49,1.2h4.58C50.46,8.67,51.09,8.09,51.09,7.79Z"/><path id="_Path_15" data-name="&lt;Path&gt;" class="cls-6" d="M51.09,8.17a.5.5,0,0,0-.5-.5h-5a.5.5,0,0,0-.5.5h0a.5.5,0,0,0,.5.5h5a.5.5,0,0,0,.5-.5Z"/><path id="_Path_16" data-name="&lt;Path&gt;" class="cls-12" d="M10.28,70.67h6.45a1.51,1.51,0,0,1,1.7,1.7c-.11,1.85-.54,5.81-2.8,7a4.44,4.44,0,0,1-5-.46A15.84,15.84,0,0,1,8.5,72.6C8.2,70.45,9.64,70.67,10.28,70.67Z"/><rect id="_Rectangle_" data-name="&lt;Rectangle&gt;" class="cls-13" x="7.09" y="70.67" width="9" height="1" rx="0.2" ry="0.2"/><g id="_Group_6" data-name="&lt;Group&gt;" class="cls-14"><path class="cls-6" d="M75.62,31.67c.27-2.21-.93-9.94-6.92-12.37s-38.19-1.54-42.1,1.06c-5.19,3.44-5.88,11-5.61,13.27,1.38,11.84-1.31,19.47-1.31,31.64,0,4.23,4.19,9.81,6.76,9.81H68.6c3.64,0,7.93-7.76,7.66-10C74.91,53.82,74.15,43.48,75.62,31.67Z"/><path class="cls-15" d="M75.62,31.67c.27-2.21-.93-9.94-6.92-12.37s-38.19-1.54-42.1,1.06c-5.19,3.44-5.88,11-5.61,13.27,1.38,11.84-1.31,19.47-1.31,31.64,0,4.23,4.19,9.81,6.76,9.81H68.6c3.64,0,7.93-7.76,7.66-10C74.91,53.82,74.15,43.48,75.62,31.67Z"/></g><path id="_Path_17" data-name="&lt;Path&gt;" class="cls-16" d="M33,21.24a4.1,4.1,0,0,0,4.3,3.09c3.19-.21,2.44-.68,10.47-.68s8.54.68,10.29.68A4.46,4.46,0,0,0,62.48,21c.43-2.19.58-4-2.41-5.4s-11.54-1.28-12.16-1.28-11.09.27-13.2,1.71C32.16,17.78,32.66,19.62,33,21.24Z"/><path id="_Path_18" data-name="&lt;Path&gt;" class="cls-17" d="M25.49,74.46a8.05,8.05,0,0,1,7.84-4,139.11,139.11,0,0,0,14.48.74,139.11,139.11,0,0,0,14.48-.74,8.05,8.05,0,0,1,7.84,4,17.27,17.27,0,0,1,1.71,4.14.85.85,0,0,1-.38.94c-5.9,3.57-14.31,5.81-23.65,5.81s-17.75-2.24-23.65-5.81a.85.85,0,0,1-.38-.94A17.27,17.27,0,0,1,25.49,74.46Z"/><g id="_Group_7" data-name="&lt;Group&gt;"><g id="_Group_8" data-name="&lt;Group&gt;"><path id="_Path_19" data-name="&lt;Path&gt;" class="cls-7" d="M14.11,30a43.84,43.84,0,0,0-1,7c-.06,1.44,1,1.16,1.05.77a39.17,39.17,0,0,1,.94-6.58c.45-1.68,0-1.94-.23-2A.79.79,0,0,0,14.11,30Z"/><path id="_Path_20" data-name="&lt;Path&gt;" class="cls-7" d="M14.3,30a49.26,49.26,0,0,0-.92,7c-.07,1.44.84,1.17.92.78a44.08,44.08,0,0,1,.88-6.56c.41-1.68,0-1.94-.18-2S14.36,29.44,14.3,30Z"/></g><g id="_Group_9" data-name="&lt;Group&gt;"><g id="_Group_10" data-name="&lt;Group&gt;"><path id="_Path_21" data-name="&lt;Path&gt;" class="cls-18" d="M18.27,27.21c0-.69-1.46-2.51-4.25-3.52a2.17,2.17,0,0,0-2.82,1s-.36.75-.27.64l.19-.22a2.16,2.16,0,0,1,2.68-.85,6.76,6.76,0,0,1,3.81,2.85C16.2,29.88,15,36.73,14.68,44.29A89.43,89.43,0,0,0,17,70.07c-.43.59-2.72,3.41-8.16,4.6A.33.33,0,0,0,9,75.3a16.4,16.4,0,0,0,6.72-3c1.35-1.07,1.51-1.7,1.54-1.74a3.75,3.75,0,0,0,.42-.75c-4.25-16.12-2.12-37.38.6-42.44A.33.33,0,0,0,18.27,27.21Z"/></g><g id="_Group_11" data-name="&lt;Group&gt;"><path id="_Path_22" data-name="&lt;Path&gt;" class="cls-7" d="M18.4,27.21c0-.69-1.46-2.51-4.25-3.52a2.37,2.37,0,0,0-3,.9l-.35,1.27a2.42,2.42,0,0,1,.49-.7,2.16,2.16,0,0,1,2.68-.85,6.76,6.76,0,0,1,3.81,2.85c-1.41,2.73-2.58,9.58-2.93,17.14a89.43,89.43,0,0,0,2.3,25.78c-.43.59-2.72,3.41-8.16,4.6a.33.33,0,0,0,.14.64,16.4,16.4,0,0,0,6.72-3,6,6,0,0,0,1.83-2.36.33.33,0,0,0,0-.25c-4.25-16.12-2-37.26.69-42.32A.33.33,0,0,0,18.4,27.21Z"/></g></g><g id="_Group_12" data-name="&lt;Group&gt;"><g id="_Group_13" data-name="&lt;Group&gt;"><path class="cls-17" d="M18,67.86c-.64-2.5-1.66-8.23-1.66-19.3s1.34-16.63,2.19-19.15a34.89,34.89,0,0,1,3.63,17C21.92,56.93,21.17,63.44,18,67.86Z"/><path class="cls-7" d="M18.74,32.3a35.74,35.74,0,0,1,2.4,14.09c-.2,9.63-.92,15.08-2.71,18.79a98.89,98.89,0,0,1-1.11-16.61A74.71,74.71,0,0,1,18.74,32.3m-.39-5.09s-3,4.7-3,21.35S17.57,69.9,17.57,69.9c4.26-4.52,5.3-11,5.56-23.48s-4.78-19.22-4.78-19.22Z"/></g></g></g><g id="_Group_14" data-name="&lt;Group&gt;"><g id="_Group_15" data-name="&lt;Group&gt;"><path id="_Path_23" data-name="&lt;Path&gt;" class="cls-7" d="M81.52,30a43.84,43.84,0,0,1,1,7c.06,1.44-1,1.16-1.05.77a39.17,39.17,0,0,0-.94-6.58c-.45-1.68,0-1.94.23-2A.79.79,0,0,1,81.52,30Z"/><path id="_Path_24" data-name="&lt;Path&gt;" class="cls-7" d="M81.33,30a49.26,49.26,0,0,1,.92,7c.07,1.44-.84,1.17-.92.78a44.08,44.08,0,0,0-.88-6.56c-.41-1.68,0-1.94.18-2S81.26,29.44,81.33,30Z"/></g><g id="_Group_16" data-name="&lt;Group&gt;"><g id="_Group_17" data-name="&lt;Group&gt;"><path id="_Path_25" data-name="&lt;Path&gt;" class="cls-18" d="M77.36,27.21c0-.69,1.46-2.51,4.25-3.52a2.17,2.17,0,0,1,2.82,1s.36.75.27.64l-.19-.22a2.16,2.16,0,0,0-2.68-.85A6.76,6.76,0,0,0,78,27.15c1.41,2.73,2.58,9.58,2.93,17.14a89.43,89.43,0,0,1-2.3,25.78c.43.59,2.72,3.41,8.16,4.6a.33.33,0,1,1-.14.64,16.4,16.4,0,0,1-6.72-3c-1.35-1.07-1.51-1.7-1.54-1.74a3.75,3.75,0,0,1-.42-.75c4.25-16.12,2.12-37.38-.6-42.44A.33.33,0,0,1,77.36,27.21Z"/></g><g id="_Group_18" data-name="&lt;Group&gt;"><path id="_Path_26" data-name="&lt;Path&gt;" class="cls-7" d="M77.23,27.21c0-.69,1.46-2.51,4.25-3.52a2.37,2.37,0,0,1,3,.9l.35,1.27a2.42,2.42,0,0,0-.49-.7,2.16,2.16,0,0,0-2.68-.85,6.76,6.76,0,0,0-3.81,2.85c1.41,2.73,2.58,9.58,2.93,17.14a89.43,89.43,0,0,1-2.3,25.78c.43.59,2.72,3.41,8.16,4.6a.33.33,0,0,1-.14.64,16.4,16.4,0,0,1-6.72-3A6,6,0,0,1,78,69.94a.33.33,0,0,1,0-.25c4.25-16.12,2-37.26-.69-42.32A.33.33,0,0,1,77.23,27.21Z"/></g></g><g id="_Group_19" data-name="&lt;Group&gt;"><g id="_Group_20" data-name="&lt;Group&gt;"><path class="cls-17" d="M77.66,67.86c-3.2-4.42-3.95-10.92-4.17-21.45a34.9,34.9,0,0,1,3.63-17c.85,2.51,2.19,8.2,2.19,19.15S78.3,65.35,77.66,67.86Z"/><path class="cls-7" d="M76.89,32.3a74.71,74.71,0,0,1,1.43,16.26A99,99,0,0,1,77.2,65.17c-1.79-3.7-2.51-9.15-2.71-18.79a35.74,35.74,0,0,1,2.4-14.09m.39-5.09s-5,6.78-4.78,19.22,1.3,19,5.56,23.48c0,0,2.26-4.7,2.26-21.35s-3-21.35-3-21.35Z"/></g></g></g><path id="_Path_27" data-name="&lt;Path&gt;" class="cls-12" d="M85.72,70.67H79.26a1.51,1.51,0,0,0-1.7,1.7c.11,1.85.54,5.81,2.8,7a4.44,4.44,0,0,0,5-.46A15.84,15.84,0,0,0,87.5,72.6C87.8,70.45,86.36,70.67,85.72,70.67Z"/><rect id="_Rectangle_2" data-name="&lt;Rectangle&gt;" class="cls-13" x="80.09" y="70.67" width="9" height="1" rx="0.2" ry="0.2"/><g id="_Clip_Group_5" data-name="&lt;Clip Group&gt;"><g class="cls-19"><g id="_Group_21" data-name="&lt;Group&gt;" class="cls-20"><polygon id="_Path_28" data-name="&lt;Path&gt;" class="cls-21" points="85.32 34.03 29.36 104.9 20.77 99.4 76.72 28.53 85.32 34.03"/><polygon id="_Path_29" data-name="&lt;Path&gt;" class="cls-21" points="92.22 39.15 36.26 110.02 34.14 108.66 90.1 37.79 92.22 39.15"/></g></g></g><path id="_Path_30" data-name="&lt;Path&gt;" class="cls-7" d="M18,71.37c.39.62.42,1.43-.33,2.74S15.19,71.72,16,71A1.33,1.33,0,0,1,18,71.37Z"/><g id="_Group_22" data-name="&lt;Group&gt;"><path id="_Path_31" data-name="&lt;Path&gt;" class="cls-22" d="M8,69.67h7.56s2.12.14,2,2-.64,6.08-3.28,7.26-5.1.39-5.88-.4-2-3.64-2.48-6.67C5.52,69.71,7.22,69.67,8,69.67Z"/><path id="_Path_32" data-name="&lt;Path&gt;" class="cls-23" d="M7.58,71.82S7.93,76.44,10,77.9s-1.6-.71-1.49-6.08C8.57,71.11,7.58,71.82,7.58,71.82Z"/></g><g id="_Group_23" data-name="&lt;Group&gt;"><path id="_Path_33" data-name="&lt;Path&gt;" class="cls-22" d="M88,69.67H80.47s-2.12.14-2,2,.64,6.08,3.28,7.26,5.1.39,5.88-.4,2-3.64,2.48-6.67C90.48,69.71,88.78,69.67,88,69.67Z"/><path id="_Path_34" data-name="&lt;Path&gt;" class="cls-23" d="M87.89,71.92s-.35,4.62-2.46,6.08,1.6-.71,1.49-6.08C86.9,71.2,87.89,71.92,87.89,71.92Z"/></g><g id="_Group_24" data-name="&lt;Group&gt;"><path class="cls-7" d="M63.65,72.19a6.32,6.32,0,0,1,5.48,3.16,16.06,16.06,0,0,1,1.33,3c-5.95,3.36-14.14,5.28-22.65,5.28s-16.7-1.92-22.65-5.28a16.07,16.07,0,0,1,1.33-3A6.32,6.32,0,0,1,32,72.19a6.45,6.45,0,0,1,.67,0A145.84,145.84,0,0,0,47.81,73,145.85,145.85,0,0,0,63,72.22a6.45,6.45,0,0,1,.67,0m0-2a8.43,8.43,0,0,0-.88,0,143.68,143.68,0,0,1-15,.77,143.67,143.67,0,0,1-15-.77,8.39,8.39,0,0,0-.88,0,8.31,8.31,0,0,0-7.22,4.16A17.84,17.84,0,0,0,23,78.63a.88.88,0,0,0,.4,1c6.1,3.69,14.79,6,24.43,6s18.33-2.31,24.43-6a.88.88,0,0,0,.4-1,17.84,17.84,0,0,0-1.77-4.28,8.3,8.3,0,0,0-7.22-4.16Z"/></g></g></g></g></g></svg>